<?xml version="1.0" encoding="UTF-8"?>
<!-- Generator: visioncortex VTracer 0.6.3 -->
<svg version="1.1" xmlns="http://www.w3.org/2000/svg" width="777" height="1280">
<path d="M0 0 C4.45 1.69 6.67 5.23 8.88 9.31 C11.72 19.51 9.65 28.82 7.92 39.05 C7.73 40.25 7.54 41.46 7.34 42.7 C7.16 43.79 6.97 44.88 6.78 46 C6.61 49.32 7.01 51.11 8.62 54 C11.61 55.78 11.61 55.78 14.62 57 C15.62 58 15.62 58 16.19 61.56 C16.05 72.48 7.37 83.53 1.79 92.54 C-8.16 108.93 -10.27 128.26 -6.2 146.96 C0.11 171.36 20.9 191.25 39.6 207.19 C42.94 210.18 46.04 213.41 49.19 216.6 C51.25 218.63 53.35 220.52 55.56 222.38 C64.62 230.16 72.19 239.71 79.62 249 C80.56 250.15 81.49 251.31 82.43 252.46 C91.52 263.7 100.21 275.22 108.64 286.97 C114.06 294.54 119.6 301.9 125.62 309 C126.85 310.48 126.85 310.48 128.09 311.99 C133.31 318.29 138.74 324.39 144.31 330.38 C144.92 331.03 145.52 331.68 146.15 332.36 C149.83 336.28 153.68 339.89 157.77 343.4 C164.59 349.27 170.17 354.2 172.62 363 C174.51 368.22 176.35 371.17 180.69 374.62 C181.2 375.04 181.72 375.45 182.25 375.88 C192.02 383.6 202.3 390.67 212.49 397.83 C215.28 399.79 218.06 401.76 220.84 403.74 C222.39 404.84 223.95 405.93 225.51 407.02 C231.62 411.49 235.93 415.98 237.25 423.62 C236.46 427.87 234.97 430.37 231.62 433 C223.32 438.06 210.69 436.96 201.44 435.5 C198.75 434.81 196.22 433.98 193.62 433 C192.66 432.66 191.7 432.32 190.71 431.97 C176.09 426.38 164.76 416.21 153.22 405.98 C139.63 394.01 124.39 382.67 106.62 378 C105.76 381.08 104.91 384.16 104.06 387.25 C103.82 388.12 103.57 389 103.31 389.89 C103.09 390.74 102.86 391.58 102.62 392.45 C102.41 393.23 102.19 394 101.97 394.8 C101.58 397.26 101.7 398.69 102.62 401 C104.81 402.68 106.92 404.12 109.25 405.56 C110.61 406.43 111.97 407.31 113.32 408.18 C114.03 408.64 114.73 409.09 115.46 409.56 C119.08 411.97 122.57 414.54 126.06 417.12 C126.72 417.61 127.38 418.1 128.05 418.6 C129.58 419.73 131.1 420.86 132.62 422 C132.3 423.65 131.96 425.3 131.62 427 C127.1 425.62 123.09 423.8 118.91 421.59 C118.29 421.27 117.66 420.94 117.02 420.61 C114.39 419.23 111.77 417.84 109.14 416.45 C107.21 415.43 105.28 414.42 103.34 413.41 C102.2 412.8 101.05 412.2 99.87 411.57 C93.76 408.61 88.45 407.63 81.76 407.22 C80.05 407.1 78.35 406.98 76.64 406.86 C73.96 406.68 71.28 406.5 68.61 406.32 C66.01 406.15 63.42 405.97 60.82 405.78 C60.02 405.73 59.21 405.68 58.38 405.63 C56.45 405.49 54.54 405.26 52.62 405 C52.29 404.34 51.97 403.68 51.62 403 C52.66 400.75 53.73 398.65 54.94 396.5 C55.26 395.91 55.58 395.31 55.91 394.7 C57.31 392.16 58.57 390.06 60.62 388 C67.12 388.25 73.06 390.24 79.26 392.08 C83.08 393.13 86.68 393.68 90.62 394 C91.09 392.35 91.54 390.71 92 389.06 C92.26 388.15 92.51 387.23 92.77 386.29 C93.83 382.21 94.73 378.11 95.62 374 C91.73 372.73 87.83 371.47 83.94 370.21 C82.61 369.78 81.29 369.35 79.97 368.92 C78.06 368.3 76.15 367.68 74.24 367.07 C73.09 366.69 71.94 366.32 70.76 365.94 C64.49 364.06 58.69 362.74 52.44 365.31 C45.75 371.7 44.73 382.4 43.38 391.19 C43.12 392.73 43.12 392.73 42.85 394.3 C40.79 404.13 40.79 404.13 43.1 413.4 C48.9 418.73 55.01 423.37 61.49 427.84 C63.91 429.51 66.29 431.21 68.62 433 C68.29 434.65 67.97 436.3 67.62 438 C64.16 437.43 61.42 436.56 58.33 434.89 C57.54 434.47 56.74 434.04 55.92 433.6 C55.1 433.16 54.28 432.71 53.44 432.25 C50.99 430.93 48.53 429.62 46.06 428.33 C43.63 427 43.63 427 41.56 425.6 C32.62 420.04 21.68 420.96 11.5 420.69 C9.47 420.62 7.45 420.54 5.42 420.47 C0.49 420.29 -4.44 420.14 -9.38 420 C-9.7 419.34 -10.03 418.68 -10.38 418 C-9.23 415.23 -8.03 412.61 -6.69 409.94 C-6.33 409.19 -5.98 408.45 -5.62 407.68 C-5.27 406.97 -4.91 406.26 -4.55 405.53 C-4.07 404.55 -4.07 404.55 -3.58 403.55 C-2.38 402 -2.38 402 -0.53 401.2 C2.07 400.96 3.75 401.42 6.21 402.25 C7.08 402.53 7.95 402.81 8.84 403.09 C10.65 403.7 12.46 404.3 14.27 404.91 C15.57 405.32 15.57 405.32 16.9 405.75 C17.69 406.01 18.47 406.28 19.28 406.55 C22.01 407.08 23.96 406.7 26.62 406 C29.19 398.43 30.73 390.94 31.62 383 C31.76 382.03 31.89 381.06 32.03 380.07 C33.25 364.2 20.88 350.57 11.27 339.22 C7.4 334.8 3.4 330.76 -1.08 326.98 C-4.08 324.39 -6.97 321.7 -9.88 319 C-13.29 315.83 -16.71 312.67 -20.25 309.62 C-45.69 287.52 -71.54 261.25 -75.38 226 C-75.55 223.21 -75.61 220.42 -75.62 217.62 C-75.65 216.94 -75.67 216.26 -75.69 215.55 C-75.79 200.68 -71.29 186.72 -66.38 172.88 C-57.33 148.41 -57.33 148.41 -59.38 123 C-62.39 117.3 -66.24 114.04 -72.38 112 C-90.03 110.7 -106.21 114.56 -122.78 120.4 C-125.68 121.07 -127.54 120.79 -130.38 120 C-130.38 118.68 -130.38 117.36 -130.38 116 C-113.57 106.34 -95.73 100.03 -77.38 94 C-78.11 87.09 -80.21 80.78 -82.38 74.21 C-82.65 73.35 -82.92 72.5 -83.2 71.62 C-83.45 70.85 -83.7 70.08 -83.95 69.29 C-84.45 66.57 -84.12 64.65 -83.38 62 C-83.05 61.67 -82.72 61.34 -82.38 61 C-82.14 59.51 -81.96 58.01 -81.8 56.51 C-80.09 41.53 -77.98 30.32 -67.66 18.77 C-64.98 16.69 -63.68 16.6 -60.38 17 C-60.38 19.31 -60.38 21.62 -60.38 24 C-60 23.26 -59.62 22.53 -59.24 21.77 C-53.68 11.17 -53.68 11.17 -49.38 8 C-47.06 8.19 -47.06 8.19 -45.38 9 C-46.1 15.15 -47.05 21.24 -48.07 27.34 C-48.17 28.22 -48.27 29.1 -48.38 30 C-48.05 30.33 -47.72 30.66 -47.38 31 C-47.08 30.17 -46.79 29.33 -46.49 28.47 C-42.86 18.5 -38.2 7.42 -28.38 2 C-25.63 2.32 -25.63 2.32 -23.38 3 C-23.32 4.25 -23.32 4.25 -23.26 5.52 C-23.2 6.61 -23.13 7.69 -23.06 8.81 C-23 9.89 -22.95 10.97 -22.89 12.08 C-22.34 15.17 -21.82 16.13 -19.38 18 C-14.78 15.73 -12.44 12.66 -9.75 8.44 C-4.29 0 -4.29 0 0 0 Z " fill="#100502" transform="translate(335.375,421)"/>
</svg>
